<?xml version="1.0" encoding="UTF-8" standalone="no"?>
<!-- Generator: Gravit.io -->
<svg xmlns="http://www.w3.org/2000/svg" xmlns:xlink="http://www.w3.org/1999/xlink" style="isolation:isolate" viewBox="0 0 595.276 841.89" width="595.276pt" height="841.89pt"><defs><clipPath id="_clipPath_ceAgMC4CpAzIdfuhMqCESeMbWzZEB4uw"><rect width="595.276" height="841.89"/></clipPath></defs><g clip-path="url(#_clipPath_ceAgMC4CpAzIdfuhMqCESeMbWzZEB4uw)"><g clip-path="url(#_clipPath_lzZuzzPmnyQgXQcJ5bWSJUFgKnTIp95F)"><text transform="matrix(1,0,0,1,244.78,77.065)" style="font-family:'Open Sans';font-weight:700;font-size:30px;font-style:normal;text-decoration:underline;fill:#2e2e2e;stroke:none;">INVOICE</text></g><defs><clipPath id="_clipPath_lzZuzzPmnyQgXQcJ5bWSJUFgKnTIp95F"><rect x="0" y="0" width="244.828" height="44" transform="matrix(1,0,0,1,185.138,45)"/></clipPath></defs><g clip-path="url(#_clipPath_l3ZlVwWU5hEkRNx2VHrT11PhLTcgVaqf)"><text transform="matrix(1,0,0,1,14.34,147.377)" style="font-family:'Open Sans';font-weight:400;font-size:20px;font-style:normal;fill:#000000;stroke:none;">FROM:   </text><text transform="matrix(1,0,0,1,29.926,174.613)" style="font-family:'Open Sans';font-weight:400;font-size:20px;font-style:normal;fill:#000000;stroke:none;">company address,</text><text transform="matrix(1,0,0,1,14.34,201.85)" style="font-family:'Open Sans';font-weight:400;font-size:20px;font-style:normal;fill:#000000;stroke:none;">   ...............................,</text><text transform="matrix(1,0,0,1,14.34,229.086)" style="font-family:'Open Sans';font-weight:400;font-size:20px;font-style:normal;fill:#000000;stroke:none;">   ...............................,</text><text transform="matrix(1,0,0,1,14.34,256.322)" style="font-family:'Open Sans';font-weight:400;font-size:20px;font-style:normal;fill:#000000;stroke:none;">   ...............................,</text><text transform="matrix(1,0,0,1,14.34,283.559)" style="font-family:'Open Sans';font-weight:400;font-size:20px;font-style:normal;fill:#000000;stroke:none;">   ...............................,</text><text transform="matrix(1,0,0,1,14.34,310.795)" style="font-family:'Open Sans';font-weight:400;font-size:20px;font-style:normal;fill:#000000;stroke:none;">   ...............................,</text><text transform="matrix(1,0,0,1,14.34,338.031)" style="font-family:'Open Sans';font-weight:400;font-size:20px;font-style:normal;fill:#000000;stroke:none;">   ...............................,</text><text transform="matrix(1,0,0,1,14.34,365.268)" style="font-family:'Open Sans';font-weight:400;font-size:20px;font-style:normal;fill:#000000;stroke:none;">   ...............................,</text><text transform="matrix(1,0,0,1,14.34,392.504)" style="font-family:'Open Sans';font-weight:400;font-size:20px;font-style:normal;fill:#000000;stroke:none;">   ...............................</text></g><defs><clipPath id="_clipPath_l3ZlVwWU5hEkRNx2VHrT11PhLTcgVaqf"><rect x="0" y="0" width="275" height="300" transform="matrix(1,0,0,1,14.34,126)"/></clipPath></defs><g clip-path="url(#_clipPath_jIYWeZXmey0AKEbUKqf9bAbDs6QYqNHy)"><text transform="matrix(1,0,0,1,298.998,147.377)" style="font-family:'Open Sans';font-weight:400;font-size:20px;font-style:normal;fill:#000000;stroke:none;">BILL TO:   </text><text transform="matrix(1,0,0,1,314.584,174.613)" style="font-family:'Open Sans';font-weight:400;font-size:20px;font-style:normal;fill:#000000;stroke:none;">personal address</text><text transform="matrix(1,0,0,1,298.998,201.85)" style="font-family:'Open Sans';font-weight:400;font-size:20px;font-style:normal;fill:#000000;stroke:none;">   ..............................., </text><text transform="matrix(1,0,0,1,304.194,229.086)" style="font-family:'Open Sans';font-weight:400;font-size:20px;font-style:normal;fill:#000000;stroke:none;">  ..............................., </text><text transform="matrix(1,0,0,1,304.194,256.322)" style="font-family:'Open Sans';font-weight:400;font-size:20px;font-style:normal;fill:#000000;stroke:none;">  ..............................., </text><text transform="matrix(1,0,0,1,304.194,283.559)" style="font-family:'Open Sans';font-weight:400;font-size:20px;font-style:normal;fill:#000000;stroke:none;">  ..............................., </text><text transform="matrix(1,0,0,1,304.194,310.795)" style="font-family:'Open Sans';font-weight:400;font-size:20px;font-style:normal;fill:#000000;stroke:none;">  ..............................., </text><text transform="matrix(1,0,0,1,304.194,338.031)" style="font-family:'Open Sans';font-weight:400;font-size:20px;font-style:normal;fill:#000000;stroke:none;">  ..............................., </text><text transform="matrix(1,0,0,1,304.194,365.268)" style="font-family:'Open Sans';font-weight:400;font-size:20px;font-style:normal;fill:#000000;stroke:none;">  ..............................., </text><text transform="matrix(1,0,0,1,304.194,392.504)" style="font-family:'Open Sans';font-weight:400;font-size:20px;font-style:normal;fill:#000000;stroke:none;">  ...............................</text></g><defs><clipPath id="_clipPath_jIYWeZXmey0AKEbUKqf9bAbDs6QYqNHy"><rect x="0" y="0" width="258" height="272" transform="matrix(1,0,0,1,298.998,126)"/></clipPath></defs><g clip-path="url(#_clipPath_DWgBwQzC9sKtsjdW42wACmt7NZ1iatvy)"><text transform="matrix(1,0,0,1,20.665,461.169)" style="font-family:'Open Sans';font-weight:400;font-size:17px;font-style:normal;fill:#000000;stroke:none;">Invoice Number:</text></g><defs><clipPath id="_clipPath_DWgBwQzC9sKtsjdW42wACmt7NZ1iatvy"><rect x="0" y="0" width="479" height="23.151" transform="matrix(1,0,0,1,20.665,442.998)"/></clipPath></defs><g clip-path="url(#_clipPath_QFtt6qxxpWZCbKoqW3E12UXZRQ3bscYv)"><text transform="matrix(1,0,0,1,21.175,498.765)" style="font-family:'Open Sans';font-weight:400;font-size:16px;font-style:normal;fill:#000000;stroke:none;">Date</text></g><defs><clipPath id="_clipPath_QFtt6qxxpWZCbKoqW3E12UXZRQ3bscYv"><rect x="0" y="0" width="241.824" height="29" transform="matrix(1,0,0,1,21.175,481.663)"/></clipPath></defs><g clip-path="url(#_clipPath_9JEdwofpfXyLGWbjAF5zJsQGOub61LN4)"><text transform="matrix(1,0,0,1,27,532.04)" style="font-family:'Open Sans';font-weight:400;font-size:20px;font-style:normal;fill:#000000;stroke:none;">table</text></g><defs><clipPath id="_clipPath_9JEdwofpfXyLGWbjAF5zJsQGOub61LN4"><rect x="0" y="0" width="539" height="264.337" transform="matrix(1,0,0,1,27,510.663)"/></clipPath></defs><g clip-path="url(#_clipPath_u0RApvkiFWSqSUE9FPi6yU93WT4zncpi)"><text transform="matrix(1,0,0,1,383,806.377)" style="font-family:'Open Sans';font-weight:400;font-size:20px;font-style:normal;fill:#000000;stroke:none;">Total :</text></g><defs><clipPath id="_clipPath_u0RApvkiFWSqSUE9FPi6yU93WT4zncpi"><rect x="0" y="0" width="173.998" height="40" transform="matrix(1,0,0,1,383,785)"/></clipPath></defs><ellipse vector-effect="non-scaling-stroke" cx="-62.5" cy="-29" rx="115.5" ry="96" fill="rgb(74,134,232)"/><ellipse vector-effect="non-scaling-stroke" cx="622.6653543307086" cy="-30" rx="78.00078740157483" ry="86" fill="rgb(74,134,232)"/><ellipse vector-effect="non-scaling-stroke" cx="-49.5" cy="903" rx="116.5" ry="123" fill="rgb(74,134,232)"/><ellipse vector-effect="non-scaling-stroke" cx="611.9984251968505" cy="856" rx="55" ry="64" fill="rgb(74,134,232)"/></g></svg>