<svg xmlns="http://www.w3.org/2000/svg" width="593.676" height="381.322" viewBox="0 0 593.676 381.322">
  <g id="Group_3528" data-name="Group 3528" transform="translate(-3766.324 -218.339)">
    <path id="Path_44011" data-name="Path 44011" d="M485.044,586.817s58.753-1.4,83.859-37.007c45.482-64.51,24.986-121.082-55.988-116.872-90.583,4.711-79.411-195.264-236.258-98.984-34.058,20.907-109.859-23-140.143,68.477-7.2,21.753-61.282,23.267-96.233,40.712C-14.544,470.506.938,587.273,52.732,587.733s432.312-.915,432.312-.915" transform="translate(3762.39 11.316)" fill="#f8f7ff"/>
    <path id="Path_44012" data-name="Path 44012" d="M258.06,93.012h-2.813v-25.7l-.883-.078V57.023l.255-.846L131.644,19.133,80.309,53.768l.494.732a3.036,3.036,0,0,0-3.027,3.027V75.186A3.036,3.036,0,0,0,80.8,78.213h25.731a3.036,3.036,0,0,0,3.027-3.027V68.123h17.153V393.037H146.9V68.123H229.91l23.143,24.89h-4.748a3.036,3.036,0,0,0-3.027,3.027v3.027a3.036,3.036,0,0,0,3.027,3.027h9.754a3.036,3.036,0,0,0,3.027-3.027V96.039a3.036,3.036,0,0,0-3.027-3.027M131.937,21.065,251.3,57.023H109.515a3.036,3.036,0,0,0-2.981-2.523H82.382Zm112.4,47.057,9.139.808V90.879L232.322,68.123Z" transform="translate(3713.998 205.467)" fill="#e0dcfc"/>
    <path id="Path_44013" data-name="Path 44013" d="M305.011,1112.348H216.224c4.276-3.155,19.622-14.16,33.521-20.1,5.76-2.462,11.271-4.054,15.642-3.858,13.864.622,33.3,17.963,39.624,23.961" transform="translate(3620.852 -513.898)" fill="#fcd307"/>
    <path id="Path_44014" data-name="Path 44014" d="M218.757,1112.348H129.97c6.047-4.464,34.243-24.629,49.163-23.961,3.893.176,8.224,1.669,12.582,3.858,11.162,5.607,22.491,15.788,27.042,20.1" transform="translate(3678.883 -513.898)" fill="#ffeb87"/>
    <path id="Path_44015" data-name="Path 44015" d="M1459.8,251.759h0l.339-.5L1424.922,227.5l-84.353,25.411.174.58V260.5l-.605.054v17.627h-1.93a2.083,2.083,0,0,0-2.076,2.076v2.077a2.083,2.083,0,0,0,2.076,2.077h6.691a2.083,2.083,0,0,0,2.076-2.077v-2.077a2.082,2.082,0,0,0-2.076-2.076h-3.257l15.875-17.073h56.944V483.977H1428.3V261.1h11.767v4.845a2.082,2.082,0,0,0,2.076,2.076h17.65a2.082,2.082,0,0,0,2.077-2.076V253.835a2.082,2.082,0,0,0-2.077-2.076m-35.075-22.935,33.993,22.935h-16.567a2.082,2.082,0,0,0-2.045,1.731h-97.259Zm-83.372,47.889V261.657l6.269-.554h8.245Z" transform="translate(2867.396 65.282)" fill="#e0dcfc"/>
    <rect id="Rectangle_2914" data-name="Rectangle 2914" width="116.462" height="362.408" transform="translate(4043.747 236.395)" fill="#e0dcfc"/>
    <rect id="Rectangle_2915" data-name="Rectangle 2915" width="84.295" height="53.093" transform="translate(4043.747 286.4)" fill="#c8c1f2"/>
    <rect id="Rectangle_2916" data-name="Rectangle 2916" width="84.295" height="53.093" transform="translate(4043.747 383.621)" fill="#c8c1f2"/>
    <rect id="Rectangle_2917" data-name="Rectangle 2917" width="84.295" height="53.093" transform="translate(4043.747 479.587)" fill="#c8c1f2"/>
    <path id="Path_44016" data-name="Path 44016" d="M1282.79,351.125h-15.717v-49.1H1137.605V55.181h-32.167V417.792h32.167v-.2H1282.79Z" transform="translate(3022.604 181.215)" fill="#e0dcfc"/>
    <path id="Path_44017" data-name="Path 44017" d="M593.094,1162.956H.582a.582.582,0,1,1,0-1.165H593.094a.582.582,0,0,1,0,1.165" transform="translate(3766.324 -563.294)" fill="#3662c1"/>
    <path id="Path_44018" data-name="Path 44018" d="M1277.313,1142.969s.231-5.016,1.577-7.708,12.109-.841,12.109-.841,2.481,4.488,2.144,8.525Z" transform="translate(2906.969 -544.463)" fill="#060632"/>
    <path id="Path_44019" data-name="Path 44019" d="M1189.041,1142.969s.231-5.016,1.577-7.708,12.108-.841,12.108-.841,2.481,4.488,2.145,8.525Z" transform="translate(2966.357 -544.463)" fill="#060632"/>
    <path id="Path_44020" data-name="Path 44020" d="M1244.459,488.285c-1.344.974-13.514,7.326-13.514,7.326l-12.833-9.15s3.9-.568,4-.6c1.158-.323,1.1-3.429,1.251-6.735.023-.51.05-1.024.088-1.534l12.565-.456.01.156c.01.159.023.325.036.5l.025.359c.007.124.018.247.028.376.227,2.906.712,7.01,1.64,7.49.527.273,4.1.23,6.7,2.268" transform="translate(2946.798 -102.671)" fill="#fc9290"/>
    <path id="Path_44021" data-name="Path 44021" d="M1246.916,478.527c-1.037,2.074-3.345,5.683-6.768,5.565-3.269-.116-5.131-3.088-5.984-4.965.023-.51.051-1.024.088-1.534l12.565-.456.01.156.036.5.025.358c.008.123.018.247.028.376" transform="translate(2935.999 -102.671)" fill="#ea8888"/>
    <path id="Path_44022" data-name="Path 44022" d="M1229.866,387.476s6.061-6.035,13.212.122c0,0-4.252-.882-13.212-.122" transform="translate(2938.891 -40.568)" fill="#0b0754"/>
    <path id="Path_44023" data-name="Path 44023" d="M1216.115,412.169a52.016,52.016,0,0,1-3.1-8.6c-.846-3.3-.072-15.843,12.534-14.991a16.992,16.992,0,0,1,7.227,2.129c2.845,1.626,7.049,5.281,3.493,16.44l-.861,3.744Z" transform="translate(2950.392 -43.06)"/>
    <path id="Path_44024" data-name="Path 44024" d="M1238.972,434.472c-3.254,3.112-7.3,7.258-16.012-.41-1.7-1.5-1.589-3.807-1.689-7.119-.12-3.921-1.063-6.321-.625-8.582.521-2.7,2.832-3.926,7.632-4.344,8.812-.765,13.265,1.221,12.673,5.593-1.32,9.759,1.33,11.7-1.979,14.862" transform="translate(2945.171 -60.096)" fill="#fc9290"/>
    <path id="Path_44025" data-name="Path 44025" d="M1254.942,412.23s5.224-.11,6.416,1.636,1.358,3.7,1.959,4.685a3.8,3.8,0,0,1,.5,2.09l1.159-7.8-7.07-1.405Z" transform="translate(2922.02 -58.47)" fill="#9e332e"/>
    <path id="Path_44026" data-name="Path 44026" d="M1224.255,517.861s-2.23,6.574-11.273,7.777c-.245.032-.5.06-.752.086H1175.4l-.2-.061c-1.43-.454-10.23-3.469-11.155-9.107,0,0,4.626-9.5,8.158-10.678a22.4,22.4,0,0,1,3.953-.8c1.531-.2,3.143-.328,4.495-.413,1.861-.116,3.229-.147,3.229-.147a11.1,11.1,0,0,0,9.848,5.729c6.98-.084,8.6-5.643,8.6-5.643s1.96.056,4.564.338c1.435.154,3.065.376,4.671.7,2.722.542,5.373,1.36,6.89,2.591,4.036,3.279,5.8,9.629,5.8,9.629" transform="translate(2983.172 -121.094)" fill="#d2cbff"/>
    <path id="Path_44027" data-name="Path 44027" d="M1219.5,569c-.392-2.177-.975-5.492-1.433-8.407,0-.04,1.366-16.457,1.87-19.229s-2.924-17.873-2.924-17.873c-.8-2.311-2.149-3.017-3.186-3.017l1.743-14.538c-1.607-.32-3.236-.542-4.672-.7l-.835,15.234-.013.22c-1.91.106-4.291.235-6.508.333s-4.271.174-5.535.174c-2.57,0-8.468-.3-12.386-.51l-.016-.217-.946-15.511c-1.352.086-2.964.217-4.495.414l1.665,15.1v0c-1.1,0-2.359,1.948-2.533,3.03l-.17,4.724c-.829,2.378-2.547,7.66-2.832,11.368-.377,4.9,1.67,21.955,1.684,22.073-.075,2.033-.219,4.631-.5,7.144-1.539,4.17-8.1,23.561-7.434,49.635.623,24.341.991,65.931,3.859,86.125a55.223,55.223,0,0,0,1.606,7.976,2.692,2.692,0,0,0,2.21,1.87c3.289.456,10.7,1.3,13.893.136,1.529-.557,2.624-9.046,3.4-19.989.741-10.492,1.188-23.241,1.436-33.417,0,0,0,0,0,0,.2-8.113.275-14.588.275-16.985,0-5.424,1.282-21.336,1.706-30.7a.208.208,0,0,1,.416-.005v0c.643,11.112,2.888,27.963,2.924,31.707.083,9.082-.445,67.428,3.524,69.388,3.035,1.5,10.186.366,13.6-.1a3.147,3.147,0,0,0,2.6-2.246c4.269-14.681,4.647-65.692,5.367-93.765A140.571,140.571,0,0,0,1219.5,569" transform="translate(2979.167 -121.395)" fill="#1c1259"/>
    <path id="Path_44028" data-name="Path 44028" d="M1158.928,607.414c-1.261,1.009-5.38.588-6.977-.757s-4.793-.926-5.55-1.431c-.053-.035-14.926-17.66-16.538-25.077-1.627-7.485,8.668-28.082,11.581-33.7,2.157,4.556,9.341,7.016,10.623,7.422l.2.06h.4c-2.424,6.554-9.672,18.352-12.464,22.8a3.857,3.857,0,0,0-.232,3.673c3.587,7.692,7.1,14.18,8.633,18.675.305.5.961,1.393,1.753,1.272,1.1-.169,4.627-.926,6.392,1.68s3.446,4.374,2.185,5.383" transform="translate(3006.288 -149.305)" fill="#fc9290"/>
    <path id="Path_44029" data-name="Path 44029" d="M1230.788,379.378a18.565,18.565,0,0,0-2.706-2.791c-.275-.238-.571-.477-.886-.715-3.193-2.43-8.3-4.8-14.465-2.231a13.744,13.744,0,0,0-4.21,2.736q-.409.387-.775.8c-5.342,5.927-4.89,15.221-4.89,15.221l30.825-.33c.1-8.605-2.893-12.688-2.893-12.688" transform="translate(2957.069 -32.292)" fill="#fcd307"/>
    <path id="Path_44030" data-name="Path 44030" d="M1225.042,399.611c-.086-1.3-.676-11.932,3.061-15.569a6.068,6.068,0,0,0-.524-.437c-3.985,4.182-4.24,14.655-4.224,16.024l-9.854.105c-.292-7.549-4.459-15.067-4.959-15.906a6.927,6.927,0,0,0-.568.583,44.984,44.984,0,0,1,3.7,15.342l-8.8.094s8.21,2.122,14.393,2.046,16.432-2.375,16.432-2.375Z" transform="translate(2957.049 -39.744)" fill="#e2bd03"/>
    <path id="Path_44031" data-name="Path 44031" d="M1180.2,494.894c-3.153,6.054-12.109,7.19-12.109,7.19,2.9-7.064-2.944-9.291-6.559-16.523s2.775-12.025,2.775-12.025c-3.953.757-4.71,6.054-4.71,6.054-.335-3.532,2.608-9.5,11.942-10.678,6.834-.863,8.483-3.166,8.877-4.339a5.113,5.113,0,0,0,1.544,3.61c.722.636,1.413,1.188,2.071,1.67-.016.275-.028.55-.041.822-.04.931-.065,1.846-.109,2.686a4.551,4.551,0,0,0-.978,3.979,4.4,4.4,0,0,0,.323.988,8.334,8.334,0,0,1,1.619,4.034c.434,4-2.283,7.994-4.646,12.532" transform="translate(2986.185 -94.217)"/>
    <path id="Path_44032" data-name="Path 44032" d="M1234.833,682.991l-1.362-8.009a62.464,62.464,0,0,1-18.44,3.828,4.454,4.454,0,0,0-3.283-2.292l-4.891-.707a4.457,4.457,0,0,0-4.6,2.367,48.5,48.5,0,0,1-8.874-2.16l0,.043-.487,7.033v.018c2.825.751,5.535,1.335,8.125,1.78l-.144.979a4.459,4.459,0,0,0,3.75,5.061l5.421.813a4.459,4.459,0,0,0,5.111-4.131l.094-1.509a58.246,58.246,0,0,0,19.579-3.114" transform="translate(2963.763 -235.777)" fill="#060632"/>
    <path id="Path_44033" data-name="Path 44033" d="M1320.96,581.005c-1.612,7.416-16.485,25.042-16.538,25.077a1.626,1.626,0,0,1-.583.192l-.028,0c-1.229.212-3.625.124-4.939,1.234-1.6,1.344-5.719,1.765-6.98.756s.421-2.775,2.187-5.383,5.3-1.849,6.39-1.68c.651.1,1.214-.487,1.559-.976l.02-.028c.065-.1.126-.187.174-.267,1.5-4.4,4.892-10.693,8.393-18.163a4.864,4.864,0,0,0-.277-4.644c-2.339-3.736-7.086-11.5-10.141-17.726-.356-1.8-.711-3.494-.986-4.775,6.71-1.08,9.487-5.161,10.386-6.9,3.171,6.153,12.953,25.97,11.365,33.281" transform="translate(2897.456 -150.16)" fill="#fc9290"/>
    <path id="Path_44034" data-name="Path 44034" d="M1603.1,622.873c-2.25.52-12.417.643-19.556-.961a21.782,21.782,0,0,1-3.973-1.238,6.131,6.131,0,0,1-2.876-2.172c-.807-1.345-2.283-5.946-4.019-11.98-4.78-16.622-11.508-44.088-11.508-44.088s13.509,2.757,16.367,5.111,5.383,39.688,8.072,40.7c.4.148,1.08.461,1.955.893.043.02.086.043.129.063.522.258,1.11.555,1.746.883,5.577,2.866,14.808,8.03,15.764,9.177,1.261,1.514,1.178,2.858-2.1,3.615" transform="translate(2715.995 -160.057)" fill="#d2cbff"/>
    <path id="Path_44035" data-name="Path 44035" d="M1510.688,583.69a10.616,10.616,0,0,0-.179-1.91c-1.738-9.558-15.559-19.346-15.832-19.346l0,.2c0,1.461-2.3,4.157-5.85,4.389-4.208.275-9.4-2.125-9.4-4.549-.025,0-2.364.317-3.156.4-3.373.384-10.1,2.205-12.987,4.384-2.742,2.071,1.133,15.131,3.532,24.379,1.017,3.913,1.766,7.141,1.643,8.572-.061.7-.689,10.191-1.249,18.778-.464,7.084-.883,13.549-.9,13.955-.03.8,3.971,3.623,10.688,5.752a52.407,52.407,0,0,0,5.328,1.383,56.665,56.665,0,0,0,11.591,1.15c1.387-.006,2.7-.076,3.943-.2,9.6-.941,12.883-11.877,12.828-57.342" transform="translate(2782.488 -160.057)" fill="#d2cbff"/>
    <path id="Path_44036" data-name="Path 44036" d="M1514.5,537.762a81.388,81.388,0,0,1,.482-11.89l14.818,2.422s.016,4.524-.05,9.542c.009,0,.4,4.654-5.33,5.335s-10.075-1.816-9.92-5.409" transform="translate(2747.411 -135.459)" fill="#fc9290"/>
    <path id="Path_44037" data-name="Path 44037" d="M1550.211,1134.567c-1.863-1.147-.768-9.645-.768-9.645s8.727-6.928,9.9-1.594,8.236,7.753,12.258,8.421c2.776.461,3.8,1.9,4.064,2.807Z" transform="translate(2724.099 -536.06)" fill="#060632"/>
    <path id="Path_44038" data-name="Path 44038" d="M1488.26,648.543c0,14.21-6.886,10.381-11.044,6.543.56-8.587.953-39,.953-39s10.09,12.109,10.09,32.459" transform="translate(2772.478 -196.152)" fill="#d2cbff"/>
    <path id="Path_44039" data-name="Path 44039" d="M1613.1,660.267c-.275,1.993-3.424,7.795-5.893,11.831a21.766,21.766,0,0,1-3.973-1.239,6.131,6.131,0,0,1-2.876-2.172c-.807-1.345-2.283-5.945-4.019-11.98,1.284-7.427,2.505-14.76,2.505-14.76l.379-4.919c0,.379,5.759,21.99,8.368,22.495a9.253,9.253,0,0,0,3.635-.2l.128.063c.523.258,1.11.555,1.746.883" transform="translate(2692.334 -210.243)" fill="#d2cbff"/>
    <path id="Path_44040" data-name="Path 44040" d="M1468.492,1134.567c-1.863-1.147-.769-9.645-.769-9.645s8.727-6.928,9.9-1.594,8.236,7.753,12.258,8.421c2.776.461,3.785,1.9,4.048,2.807Z" transform="translate(2779.079 -536.06)" fill="#060632"/>
    <path id="Path_44041" data-name="Path 44041" d="M1504.958,477.033s-9.891-15.6,9.1-16.628c0,0,7.125.839,8.737-.774,0,0,5.526,8.4.365,17.4s-18.2,0-18.2,0" transform="translate(2755.546 -90.892)" fill="#060632"/>
    <path id="Path_44042" data-name="Path 44042" d="M1526.521,499.233c-1.44,1.133-5.662,2.258-6.882,2.39,0,0-6.26-1.4-7.4-2.083-1.762-1.068-1.648-3.231-1.739-6.237-.109-3.558-.467-6.353-.07-8.4.472-2.454,2.028-3.85,6.384-4.23,8-.694,11.328,1.309,11.467,3.989.037.72.07,1.406.093,2.057.32,8.361-.341,11.326-1.855,12.518" transform="translate(2750.254 -104.954)" fill="#fc9290"/>
    <path id="Path_44043" data-name="Path 44043" d="M1528.578,507.806c-.077,4.844-1.384,7.711-2.33,8.073a20,20,0,0,1-3.709.991c-.45.053-.882.038-.877-.218.015-.764,1.036-1.706.277-2.382-.8-.71-5.066-.949-5.41.6-.168.755,1.209,2.088.266,2.118-.287-.048-.567-.1-.836-.174a12.471,12.471,0,0,1-3.29-1.451c-1.762-1.069-1.646-2.707-2.037-5.689-.253-1.929-.253-.884,0,1.979.264,3-.253,4.919,1.74,6.237,1.108.734,7.49,3.6,7.49,3.6-.093-1.518,5.35-2.775,6.789-3.908,1.337-1.05,2.007-3.481,1.928-9.777" transform="translate(2750.124 -123.304)" fill="#060632"/>
    <path id="Path_44044" data-name="Path 44044" d="M1474.359,672.722c-.03.8,3.971,3.622,10.689,5.751.54.173,1.1.338,1.677.5a.019.019,0,0,1,.014.017c.627,7.353,2.323,17.739,3.853,27.764v0c.4,2.6.78,5.171,1.133,7.661a152.344,152.344,0,0,1,1.708,16.914v.045c.033,1.983-1.64,6.93-1.766,8.073-.078.7-.141,1.438-.187,2.212a89.742,89.742,0,0,0,.141,10.658c1.1,17.043,5.6,38.849,7.207,39.777,3.194,1.846,9.006,0,11.96-.434a2.441,2.441,0,0,0,2.139-2.457c-1.443-28.284,2.7-67.674,5.8-91.889q.121-.946.24-1.857c.371-2.855.616-5.522.769-7.926.141-2.109.209-4.024.24-5.683.008-.517.013-1.011.015-1.478.008-1.516-1.2-11.44-1.254-56.905a1.918,1.918,0,0,0-1.912-1.91h-27.8a4.818,4.818,0,0,0-4.815,4.885,77.539,77.539,0,0,1-.835,12.932c-1.026,6.313-3.224,12.21-7.759,13.63a.017.017,0,0,0-.011.009c-.021.046-.145.322-.344.782a.02.02,0,0,0,0,.007q-.064,1.713-.143,3.488c-.01.237-.021.477-.033.716-.005.142-.013.28-.02.421-.01.24-.023.482-.036.724q-.027.6-.06,1.205c-.017.318-.036.636-.053.956q-.05.923-.111,1.866c-.01.2-.023.4-.038.605-.053.812-.108,1.637-.171,2.467-.018.255-.038.51-.058.767-.007.124-.018.247-.028.371-.025.326-.05.651-.078.979-.028.346-.058.694-.089,1.045-.111,1.276.053,2.414.02,3.31" transform="translate(2774.439 -199.833)" fill="#1c1259"/>
    <path id="Path_44045" data-name="Path 44045" d="M1527.229,874.7c1.1,17.043,5.6,38.849,7.207,39.777,3.194,1.846,9.006,0,11.96-.434a2.441,2.441,0,0,0,2.139-2.457c-1.443-28.284,2.7-67.675,5.8-91.89.081-.631.161-1.249.24-1.857.371-2.855.615-5.522.769-7.926-1.473-9.6-9.788-10.115-17.328,9.745.933,6.589-11.037,51.136-10.787,55.041" transform="translate(2738.832 -322.22)" fill="#12084c"/>
    <path id="Path_44046" data-name="Path 44046" d="M1463.375,823.534c-.228,1.97-2.534,6.655-2.811,7.771-3.812,15.33-1.706,51.679.183,53.132,2.924,2.25,8.93,1.18,11.914,1.14a2.439,2.439,0,0,0,2.443-2.153c2.344-28.962,12.056-68.74,18.3-92.141A109.777,109.777,0,0,0,1497,770.83s-29.191-17.885-32.348-8.115c-2.794,8.646.487,45.691-1.274,60.819" transform="translate(2785.112 -292.839)" fill="#1c1259"/>
    <path id="Path_44047" data-name="Path 44047" d="M1520.34,440.778q-.3-.34-.64-.659a11.359,11.359,0,0,0-3.478-2.26c-5.09-2.123-9.311-.164-11.949,1.844-.26.2-.5.394-.732.59a15.323,15.323,0,0,0-2.234,2.306s-2.473,3.372-2.39,10.481l25.462.272s.374-7.677-4.039-12.573" transform="translate(2757.879 -75.628)" fill="#fcd307"/>
    <path id="Path_44048" data-name="Path 44048" d="M1515.574,459.309l1.4.016c.029-.405-.04-9.647-3.486-13.234a4.922,4.922,0,0,0-.433.358c3.273,3.159,2.528,12.765,2.521,12.861" transform="translate(2748.367 -81.783)" fill="#e2bd03"/>
    <path id="Path_44049" data-name="Path 44049" d="M1517.13,459.81a39.147,39.147,0,0,1,3.042-12.66,5.709,5.709,0,0,0-.469-.495c-.405.7-3.726,6.855-4.078,13.138l-16.7-.178s8.465,1.9,13.572,1.962a55.554,55.554,0,0,0,11.89-1.69Z" transform="translate(2757.875 -82.163)" fill="#e2bd03"/>
    <path id="Path_44050" data-name="Path 44050" d="M1495.984,564.2s8.6,10.023,9.108,18.767l-4.383.233a42.139,42.139,0,0,0-7.579-18.4s1.013-.245,1.35-.312c.451-.09,1.5-.287,1.5-.287" transform="translate(2761.771 -161.247)" fill="#0b0754"/>
    <path id="Path_44051" data-name="Path 44051" d="M1567.4,563.783a43.826,43.826,0,0,1,6.824,19.094l4.424-.076c-.363-6.874-4.682-14.435-7.066-18.018,0,0-3.062-.774-4.182-1" transform="translate(2711.801 -160.965)" fill="#0b0754"/>
    <path id="Path_44052" data-name="Path 44052" d="M1463.136,848.16h-3.552c-1.651-.75-10.547-4.6-19.1-4.65-6.169-.034-13.2,4.575-13.622,4.625-1.072.126,3.574.169,3.574.169s6.963-3.081,10.091-3.153c2.982-.069,9.6,2.1,12.246,3.01h-19.911a3.036,3.036,0,0,0-3.027,3.027v22.7a3.036,3.036,0,0,0,3.027,3.027h30.272a3.036,3.036,0,0,0,3.027-3.027v-22.7a3.036,3.036,0,0,0-3.027-3.027" transform="translate(2806.462 -349.161)" fill="#eece16"/>
    <path id="Path_44053" data-name="Path 44053" d="M1439.512,857.721H1409.24a3.036,3.036,0,0,0-3.027,3.027v22.7a3.036,3.036,0,0,0,3.027,3.027h30.272a3.036,3.036,0,0,0,3.027-3.027v-22.7a3.036,3.036,0,0,0-3.027-3.027" transform="translate(2820.247 -358.721)" fill="#e2bd03"/>
    <path id="Path_44054" data-name="Path 44054" d="M1458.226,619.235c.217,10.262-1.062,30.7-1.062,30.7h-6.054c-2.858-14.379-3.867-23.629-3.867-28.674q0-1.491.013-2.775c.038-4.308.153-6.811.153-6.811-1.135-26.106,4.08-40.067,5.716-41.989s9.132-3.65,9.132-3.65a102.973,102.973,0,0,1,3.484,13.014c1.009,5.8-7.936,30.181-7.568,38.513.023.52.04,1.08.053,1.675" transform="translate(2792.644 -162.478)" fill="#d2cbff"/>
    <path id="Path_44055" data-name="Path 44055" d="M1709.069,749.972h-4.9a.89.89,0,0,0-.883.887V884.186a.888.888,0,0,0,.883.885h4.9a.885.885,0,0,0,.882-.885V750.859a.887.887,0,0,0-.882-.887" transform="translate(2620.379 -286.229)" fill="#eece16"/>
    <path id="Path_44056" data-name="Path 44056" d="M1709.069,749.972h-4.9a.89.89,0,0,0-.883.887v4.131h6.662v-4.131a.887.887,0,0,0-.882-.887" transform="translate(2620.379 -286.229)" fill="#0b0754"/>
    <path id="Path_44057" data-name="Path 44057" d="M1703.289,1152.815a.888.888,0,0,0,.883.885h4.9a.885.885,0,0,0,.882-.885v-3.564h-6.662Z" transform="translate(2620.379 -554.858)" fill="#0b0754"/>
    <path id="Path_44058" data-name="Path 44058" d="M1712.56,776.671a.506.506,0,0,0-.5.5V894.532a.5.5,0,1,0,1.009,0V777.176a.506.506,0,0,0-.505-.5" transform="translate(2614.481 -304.192)" fill="#a83f3f"/>
    <path id="Path_44059" data-name="Path 44059" d="M1457.163,756.969s1.279-20.436,1.062-30.7a21.448,21.448,0,0,0-10.971-.752q-.012,1.282-.013,2.775c0,5.045,1.009,14.3,3.867,28.675-1.261,5.3-1.177,11.015,1.009,12.024s9.418-2.775,9.334-4.457-4.288-7.568-4.288-7.568" transform="translate(2792.644 -269.514)" fill="#fc9290"/>
    <path id="Path_44060" data-name="Path 44060" d="M1654.487,720.034c-.59-2.164-1.029-3.363-2.518-4.414-2.165-1.527-4.735-1.114-6.651-.778a7.355,7.355,0,0,1-3.64-.481c-3.392-2.26-11.907-6.922-16.147-9.012-2.894,1.678-6.448,5-8.121,11.475,6.526,2.879,20.809,2.828,23.529,2.2,0,0,2.517,1.83,4.433,2a6.657,6.657,0,0,0,2.495-.434,3.391,3.391,0,0,1,3.758,1.195,4.636,4.636,0,0,0,2.65,1.783c.78,0,.584-2.169.213-3.532" transform="translate(2678.157 -256.208)" fill="#fc9290"/>
    <path id="Path_44061" data-name="Path 44061" d="M91.524,830.486H61.252a3.036,3.036,0,0,0-3.027,3.027v22.7a3.036,3.036,0,0,0,3.027,3.027H91.524a3.036,3.036,0,0,0,3.027-3.027v-22.7a3.036,3.036,0,0,0-3.027-3.027" transform="translate(3727.151 -340.398)" fill="#eece16"/>
    <path id="Path_44062" data-name="Path 44062" d="M121.59,830.486H91.318a3.036,3.036,0,0,0-3.027,3.027v22.7a3.036,3.036,0,0,0,3.027,3.027H121.59a3.036,3.036,0,0,0,3.027-3.027v-22.7a3.036,3.036,0,0,0-3.027-3.027" transform="translate(3706.924 -340.398)" fill="#e2bd03"/>
    <path id="Path_44063" data-name="Path 44063" d="M77.5,820.233s7.19-5.3,8.262-5.172,2.775.5,2.775.5L82.1,820.422Z" transform="translate(3714.185 -330.019)" fill="#e2bd03"/>
    <path id="Path_44064" data-name="Path 44064" d="M149.108,565.608c-2.883-2.18-9.614-4-12.987-4.384-.792-.088-3.161-.1-3.186-.1,0,2.424-5.163,4.518-9.371,4.243-3.547-.232-5.85-2.929-5.85-4.389l0-.005c-.273,0-14.094,9.594-15.832,19.152a10.676,10.676,0,0,0-.179,1.91c-.056,45.465-2.81,52.438-1.94,52.423,0,0,5.171,3.978,14.767,4.919,1.241.123,2.556.194,3.943.2a56.613,56.613,0,0,0,11.592-1.15,52.356,52.356,0,0,0,5.327-1.382c6.718-2.129,10.719-4.947,10.689-5.752-.033-.9.131-2.033.02-3.31-.419-4.813-.648-9.018-.825-13.254a49.472,49.472,0,0,0,11.5-.081c5.971-12.847-3.761-46.093-7.661-49.04m-1.7,37.007c-.444.118-.926.232-1.44.341-.356.078-.726.151-1.11.222-.008-.174-.012-.351-.02-.522-.1-2.381-.21-4.649-.366-6.806-.131-1.806-.293-3.534-.5-5.184,2.515,6.632,4.268,11.728,3.441,11.95" transform="translate(3699.321 -159.075)" fill="#d2cbff"/>
    <path id="Path_44065" data-name="Path 44065" d="M107.227,560.987s-10.678,1.617-15.276,5.449-5.062,28.228-6.6,35.124a54,54,0,0,0-.805,6.2,134.768,134.768,0,0,0,.978,27.137,10.3,10.3,0,0,1-.627,4.528c-1.177,2.943-1.43,3.784.673,5.466s4.372,4.037,5.97,3.364c1.233-.519,1.014-8.693.849-12.4,1.845-7.929,4.832-22.811,7.643-37.232,3.751-19.228,7.189-37.635,7.189-37.635" transform="translate(3709.808 -159.084)" fill="#fc9290"/>
    <path id="Path_44066" data-name="Path 44066" d="M108.354,560.99s-1.983,10.608-4.579,24.129c-.822,4.291-1.708,8.874-2.611,13.506-3.675,7.2-6.829,12.1-7.8,11.178-1.988-1.877-5.477-2.109-7.684-2.039a53.953,53.953,0,0,1,.8-6.2c.121-.545.235-1.2.346-1.942,1.287-8.678,2.016-29.653,6.249-33.18,2.227-1.854,5.88-3.191,9.056-4.079h0c1.622-.451,3.121-.784,4.241-1.011,1.211-.242,1.978-.358,1.978-.358" transform="translate(3708.681 -159.085)" fill="#d2cbff"/>
    <path id="Path_44067" data-name="Path 44067" d="M93.362,634.543c-1.987-1.876-5.476-2.108-7.685-2.038a53.985,53.985,0,0,1,.805-6.2c.121-.545.235-1.2.346-1.943l11.018-26.6s-3.51,37.7-4.484,36.78" transform="translate(3708.682 -183.826)" fill="#d2cbff"/>
    <path id="Path_44068" data-name="Path 44068" d="M170.122,535.712a81.353,81.353,0,0,0-.482-11.89l-14.818,2.421s0,4.522.065,9.539l-.015,0s-.4,4.654,5.329,5.336,10.075-1.816,9.921-5.408" transform="translate(3662.163 -134.08)" fill="#fc9290"/>
    <path id="Path_44069" data-name="Path 44069" d="M111.7,1134.412c1.863-1.146.773-9.7.773-9.7s-8.727-6.927-9.9-1.594-8.236,7.753-12.258,8.421c-2.776.461-3.63,2-3.893,2.914Z" transform="translate(3708.182 -535.917)" fill="#060632"/>
    <path id="Path_44070" data-name="Path 44070" d="M222.276,664.016s-2.775,3.751-3.343,3.751-7.568-2.712-5.56-8.776,6.9-7.278,6.9-7.278c.212,1.65.373,3.378.5,5.184.156,2.157.268,4.425.366,6.806.008.171.012.348.02.522.383-.071.754-.144,1.11-.222Z" transform="translate(3623.013 -220.122)" fill="#d2cbff"/>
    <path id="Path_44071" data-name="Path 44071" d="M193.419,1134.412c1.863-1.146.773-9.7.773-9.7s-8.727-6.927-9.9-1.594-8.236,7.753-12.258,8.421c-2.776.461-3.63,2-3.894,2.914Z" transform="translate(3653.204 -535.917)" fill="#060632"/>
    <path id="Path_44072" data-name="Path 44072" d="M163.933,474.982s9.892-15.6-9.1-16.628c0,0-7.124.839-8.737-.774,0,0-5.526,8.4-.366,17.4s18.2,0,18.2,0" transform="translate(3669.762 -89.512)"/>
    <path id="Path_44073" data-name="Path 44073" d="M152.189,497.181c1.439,1.133,5.661,2.258,6.882,2.389,0,0,6.26-1.4,7.4-2.083,1.762-1.068,1.649-3.23,1.739-6.236.108-3.559.467-6.353.07-8.4-.472-2.454-2.028-3.85-6.384-4.229-8-.694-11.328,1.309-11.468,3.989-.036.72-.069,1.406-.093,2.057-.32,8.36.341,11.325,1.856,12.518" transform="translate(3665.235 -103.574)" fill="#fc9290"/>
    <path id="Path_44074" data-name="Path 44074" d="M150.262,505.755c.078,4.843,1.384,7.711,2.33,8.073a20.039,20.039,0,0,0,3.709.991c.45.053.882.038.877-.218-.015-.764-1.036-1.706-.277-2.382.8-.71,5.067-.949,5.411.6.168.755-1.209,2.088-.266,2.118.287-.049.568-.1.836-.174a12.476,12.476,0,0,0,3.29-1.451c1.762-1.068,1.647-2.707,2.037-5.689.253-1.929.253-.883,0,1.979-.264,3,.253,4.919-1.739,6.236-1.108.734-7.491,3.6-7.491,3.6.093-1.518-5.349-2.775-6.789-3.908-1.337-1.05-2.008-3.481-1.928-9.777" transform="translate(3665.235 -121.924)"/>
    <path id="Path_44075" data-name="Path 44075" d="M147.839,670.67c.03.8-3.971,3.622-10.689,5.751-.541.173-1.1.338-1.677.5a.018.018,0,0,0-.014.016c-.627,7.352-2.323,17.74-3.854,27.764v0c-.4,2.6-.779,5.171-1.133,7.661a152.411,152.411,0,0,0-1.707,16.914v.045c-.033,1.983,1.639,6.93,1.765,8.072q.118,1.049.187,2.213a89.835,89.835,0,0,1-.141,10.658c-1.1,17.043-5.6,38.849-7.207,39.777-3.194,1.846-9.006,0-11.96-.434a2.441,2.441,0,0,1-2.139-2.457c1.443-28.284-2.7-67.674-5.8-91.889q-.121-.946-.24-1.856c-.371-2.856-.615-5.522-.769-7.926-.141-2.109-.209-4.024-.24-5.683-.008-.517-.012-1.011-.015-1.478-.008-1.516,1.2-11.44,1.254-56.906a1.918,1.918,0,0,1,1.912-1.91h27.8a4.819,4.819,0,0,1,4.815,4.885,77.49,77.49,0,0,0,.835,12.932c1.026,6.313,3.224,12.21,7.759,13.63a.017.017,0,0,1,.011.01c.02.045.144.322.344.782a.026.026,0,0,1,0,.007q.064,1.712.144,3.488c.01.237.02.477.033.716,0,.142.012.28.02.422.01.24.023.482.035.724.018.4.038.8.061,1.206.018.318.035.636.053.956q.049.923.111,1.867c.01.2.023.4.038.606.053.812.109,1.637.171,2.467.018.255.038.509.058.767.008.123.018.247.027.371.026.325.051.651.079.978.028.346.058.694.088,1.045.111,1.276-.053,2.414-.02,3.31" transform="translate(3697.561 -198.452)" fill="#1c1259"/>
    <path id="Path_44076" data-name="Path 44076" d="M131.1,872.653c-1.1,17.043-5.6,38.849-7.207,39.777-3.194,1.846-9.006,0-11.96-.434a2.44,2.44,0,0,1-2.139-2.457c1.443-28.284-2.7-67.675-5.8-91.89q-.121-.945-.24-1.856c-.371-2.856-.616-5.522-.77-7.926,1.473-9.6,9.788-10.116,17.328,9.745,3.231,7.694,11.036,51.136,10.787,55.041" transform="translate(3697.038 -320.839)" fill="#12084c"/>
    <path id="Path_44077" data-name="Path 44077" d="M173.485,821.483c.228,1.97,2.534,6.655,2.811,7.771,3.812,15.33,1.706,51.679-.184,53.132-2.924,2.25-8.929,1.181-11.913,1.14a2.439,2.439,0,0,1-2.443-2.153c-2.344-28.961-12.056-68.74-18.3-92.14a109.829,109.829,0,0,1-3.591-20.454s29.192-17.885,32.349-8.115c2.793,8.646-.488,45.691,1.273,60.819" transform="translate(3672.227 -291.459)" fill="#1c1259"/>
    <path id="Path_44078" data-name="Path 44078" d="M162.464,440.548a15.348,15.348,0,0,0-2.235-2.306c-.227-.2-.472-.394-.732-.59-2.638-2.007-6.859-3.967-11.948-1.843a11.348,11.348,0,0,0-3.478,2.26c-.226.213-.439.432-.641.659-4.413,4.9-4.039,12.573-4.039,12.573l25.463-.272c.082-7.108-2.39-10.481-2.39-10.481" transform="translate(3672.55 -74.248)" fill="#fcd307"/>
    <path id="Path_44079" data-name="Path 44079" d="M192.5,457.257c-.007-.1-.752-9.7,2.521-12.861a5.166,5.166,0,0,0-.433-.358c-3.447,3.588-3.516,12.829-3.486,13.235Z" transform="translate(3637.755 -80.402)" fill="#e2bd03"/>
    <path id="Path_44080" data-name="Path 44080" d="M148.183,457.741c-.241-6.236-3.683-12.445-4.1-13.138a5.7,5.7,0,0,0-.47.482,37.155,37.155,0,0,1,3.059,12.673l-7.269.078a55.576,55.576,0,0,0,11.89,1.69c5.108-.063,13.573-1.962,13.573-1.962Z" transform="translate(3672.533 -80.782)" fill="#e2bd03"/>
    <path id="Path_44081" data-name="Path 44081" d="M195.565,562.152s-8.6,10.022-9.108,18.767h4.373a41.878,41.878,0,0,1,7.589-18.168Z" transform="translate(3640.879 -159.867)" fill="#0b0754"/>
    <path id="Path_44082" data-name="Path 44082" d="M125.769,562.084a43.945,43.945,0,0,0-6.894,18.788H114.5c.363-6.874,4.639-14.195,7.023-17.777h0c1.622-.452,3.12-.785,4.24-1.012" transform="translate(3689.289 -159.822)" fill="#0b0754"/>
    <path id="Path_44083" data-name="Path 44083" d="M191.331,609.712a91.383,91.383,0,0,0-1.489-12,38.238,38.238,0,0,1-.483,6.359c1.082,8.622.664,15.212-1.257,18.943a12.856,12.856,0,0,1-4.834,5.277,15.27,15.27,0,0,0,2.672-3.527c1.477-2.646,2.836-7.572,2.332-16.659-.1.259-.208.508-.321.751,0,0-.374.064-1.1.139.3,6.643-.414,11.731-2.111,14.775a12.557,12.557,0,0,1-5.113,5.125,15,15,0,0,0,1.819-2.2c1.752-2.575,3.58-7.637,3.659-17.572-.437.025-.922.046-1.454.06-.081,7.616-1.2,13.284-3.319,16.381-.1.144-.2.287-.3.425,1.6-2.753,3.139-7.744,3.218-16.8-.455.007-.941.012-1.456.007-.077,7.61-1.2,13.273-3.317,16.368a11.988,11.988,0,0,1-4.891,4.237c-.582-.1-1.179-.231-1.777-.391-.081-.018-.162-.039-.24-.065l-.026-.007c-.079-.021-.16-.044-.238-.067q-1.1-.319-2.127-.728c-8.411-3.34-13.238-10.862-13.707-17.045a99.47,99.47,0,0,1,.911-18.044c1.748-14.017,5.555-30.267,10.185-36.725.079-.109.152-.215.231-.317a0,0,0,0,1,0,0c.1-.127.194-.252.294-.367.171-.206.34-.4.513-.573l0,0a5.682,5.682,0,0,1,1.079-.883,2.749,2.749,0,0,1,.319.222,6.162,6.162,0,0,1,1.073,1.1s.007.007.009.012c.483.1.985.224,1.5.353.238.065.483.127.728.2a.175.175,0,0,1,.046.011c.058.012.115.03.171.046.3.083.6.171.9.261l.515.16c.2.064.4.129.606.2.22.074.439.148.656.224s.462.164.689.25l-.014-.021c-2.725-4.295-4.663-5.3-5.92-5.236a3.5,3.5,0,0,0-.589.079,2.487,2.487,0,0,0-.631-.085,3.771,3.771,0,0,0-1.267.233,6.8,6.8,0,0,0-4.066,2.448c-.1.1-.192.206-.289.314a25.015,25.015,0,0,0-2.349,3.19l-.014.021c-7.455,11.782-14.405,37.955-14.819,50.206-.326,9.694,7.138,18.362,14.68,21.913a22.863,22.863,0,0,0,2.194.9q.614.215,1.216.384l.025.007a16.765,16.765,0,0,0,4.538.656c.312,0,.619-.009.925-.03.314.021.626.03.936.03a13.374,13.374,0,0,0,3.932-.573c.2-.009.393-.023.587-.037.167-.016.333-.03.495-.051.319-.037.636-.085.948-.143a15.708,15.708,0,0,0,2.663-.206,13.431,13.431,0,0,0,7.08-3.44,15.27,15.27,0,0,0,3.162-4.23c1.257-2.45,2.372-6.754,2-14.239m-43.932-.869c.365-10.843,6.294-33.872,12.85-46.306-.229.55-.46,1.119-.687,1.7-6.195,13.12-11.4,33.986-11.752,44.531a21.083,21.083,0,0,0,3.664,12.2,20.477,20.477,0,0,1-4.075-12.133m15.61,20.193c-9.329-4.392-13.98-13.483-13.751-20.193.2-5.957,2.08-15.6,4.822-25.133-2.138,10.309-3.331,20.767-3.038,27.19.37,8.134,6.149,14.9,12.6,18.42-.213-.088-.421-.183-.636-.284M152.484,610.8c-.425-9.3,2.515-28.029,6.863-41.464.488-1.5.992-2.94,1.512-4.292.194-.412.388-.811.583-1.206-3.347,9.167-5.862,22.269-6.953,33.271a89.779,89.779,0,0,0-.455,14.551c.508,6.713,4.692,12.32,9.833,15.887-7.168-3.962-11.121-11.012-11.382-16.747" transform="translate(3668.138 -153.279)" fill="#eece16"/>
    <path id="Path_44084" data-name="Path 44084" d="M170.029,687.47c-.237.035-4.707.852-4.952.887-7.445,1.092-17.463,1.573-18.506,1.62-.1-.091-3.652-3.4-5.038-3.4-1.405,0-5.455,1.476-5.869,2.611s-.579,3.179.579,3.633a52.052,52.052,0,0,0,7.191,1.7,3.281,3.281,0,0,0,.6-.005,125.675,125.675,0,0,0,22.478,4.51,53.679,53.679,0,0,0,6.279.423,32.854,32.854,0,0,0-2.758-11.981" transform="translate(3675.26 -243.578)" fill="#fc9290"/>
    <path id="Path_44085" data-name="Path 44085" d="M633.848,334.457V332.5h-4.281v-12.91h-3.543V332.5h-8.976v-12.91h-3.543V332.5h-9.758v-12.91H600.2V332.5h-8.976v-12.91h-3.543V332.5h-4.695v1.956h4.695v6.285h-4.695V342.7h4.695v6.286h-4.695v1.956h4.695v6.286h-4.695v1.956h4.695v6.285h-4.695v1.956h4.695v6.286h-4.695v1.956h4.695v5.085h-4.695v1.956h4.695v6.286h-4.695v1.956h4.695v6.285h-4.695v1.956h4.695v6.285h-4.695v1.956h4.695v6.285h-4.695v1.956h4.695v6.286h-4.695v1.956h4.695v6h-4.695v1.956h4.695v6.285h-4.695v1.956h4.695v6.285h-4.695v1.956h4.695v6.285h-4.695v1.956h4.695v6.285h-4.695v1.956h4.695v6.285h-4.695v1.956h4.695v5.086h-4.695v1.956h4.695V486.4h-4.695v1.956h4.695v6.285h-4.695V496.6h4.695v6.285h-4.695v1.956h4.695v6.285h-4.695v1.956h4.695v6.285h-4.695v1.956h4.695v5.607h-4.695v1.956h4.695v6.286h-4.695v1.956h4.695v6.285h-4.695v1.956h4.695v6.286h-4.695v1.956h4.695V559.9h-4.695v1.956h4.695v6.286h-4.695V570.1h4.695v5.086h-4.695v1.956h4.695v6.285h-4.695v1.956h4.695v6.286h-4.695v1.956h50.857v-1.956h-4.281v-6.286h4.281v-1.956h-4.281v-6.285h4.281v-1.956h-4.281V570.1h4.281v-1.956h-4.281v-6.286h4.281V559.9h-4.281v-6.286h4.281v-1.956h-4.281v-6.286h4.281v-1.956h-4.281v-6.285h4.281v-1.956h-4.281v-6.286h4.281v-1.956h-4.281v-5.607h4.281v-1.956h-4.281v-6.285h4.281v-1.956h-4.281v-6.285h4.281v-1.956h-4.281V496.6h4.281v-1.956h-4.281v-6.285h4.281V486.4h-4.281v-6.285h4.281v-1.956h-4.281v-5.086h4.281v-1.956h-4.281v-6.285h4.281v-1.956h-4.281v-6.285h4.281v-1.956h-4.281v-6.285h4.281v-1.956h-4.281V440.11h4.281v-1.956h-4.281v-6.285h4.281v-1.956h-4.281v-6h4.281v-1.956h-4.281v-6.286h4.281v-1.956h-4.281v-6.285h4.281v-1.956h-4.281v-6.285h4.281v-1.956h-4.281v-6.285h4.281v-1.956h-4.281v-6.286h4.281V380.75h-4.281v-5.085h4.281v-1.956h-4.281v-6.286h4.281v-1.956h-4.281v-6.285h4.281v-1.956h-4.281V350.94h4.281v-1.956h-4.281V342.7h4.281v-1.956h-4.281v-6.285Zm-20.343,6.285h-9.758v-6.285h9.758Zm-9.758,236.395h9.758v6.285h-9.758Zm9.758,14.527h-9.758v-6.286h9.758ZM603.747,570.1h9.758v5.086h-9.758Zm0-8.242h9.758v6.286h-9.758Zm0-8.241h9.758V559.9h-9.758Zm0-8.241h9.758v6.286h-9.758Zm0-8.242h9.758v6.285h-9.758Zm0-8.242h9.758v6.286h-9.758Zm0-7.563h9.758v5.607h-9.758Zm0-8.241h9.758v6.285h-9.758Zm0-8.242h9.758v6.285h-9.758Zm0-8.242h9.758v6.285h-9.758Zm0-8.241h9.758v6.285h-9.758Zm0-8.242h9.758V486.4h-9.758Zm0-7.042h9.758v5.086h-9.758Zm0-8.242h9.758v6.285h-9.758Zm0-8.241h9.758v6.285h-9.758Zm0-8.242h9.758v6.285h-9.758Zm0-8.241h9.758v6.285h-9.758Zm0-8.242h9.758v6.285h-9.758Zm0-7.954h9.758v6h-9.758Zm0-8.242h9.758v6.286h-9.758Zm0-8.241h9.758v6.285h-9.758Zm0-8.242h9.758v6.285h-9.758Zm0-8.241h9.758v6.285h-9.758Zm0-8.242h9.758v6.286h-9.758Zm0-7.041h9.758v5.086h-9.758Zm0-8.242h9.758v6.286h-9.758Zm0-8.242h9.758v6.285h-9.758Zm0-8.241h9.758v6.286h-9.758Zm0-8.242h9.758v6.286h-9.758Zm-12.519-8.241H600.2v6.285h-8.976Zm0,8.241H600.2v6.286h-8.976Zm0,8.242H600.2v6.286h-8.976Zm0,8.241H600.2v6.285h-8.976Zm0,8.242H600.2v6.286h-8.976Zm0,8.242H600.2v5.086h-8.976Zm0,7.041H600.2v6.286h-8.976Zm0,8.242H600.2v6.285h-8.976Zm0,8.241H600.2v6.285h-8.976Zm0,8.242H600.2v6.285h-8.976Zm0,8.241H600.2v6.286h-8.976Zm0,8.242H600.2v6h-8.976Zm0,7.954H600.2v6.285h-8.976Zm0,8.242H600.2v6.285h-8.976Zm0,8.241H600.2v6.285h-8.976Zm0,8.242H600.2v6.285h-8.976Zm0,8.241H600.2v6.285h-8.976Zm0,8.242H600.2v5.086h-8.976Zm0,7.042H600.2V486.4h-8.976Zm0,8.242H600.2v6.285h-8.976Zm0,8.241H600.2v6.285h-8.976Zm0,8.242H600.2v6.285h-8.976Zm0,8.242H600.2v6.285h-8.976Zm0,8.241H600.2v5.607h-8.976Zm0,7.563H600.2v6.286h-8.976Zm0,8.242H600.2v6.285h-8.976Zm0,8.242H600.2v6.286h-8.976Zm0,8.241H600.2V559.9h-8.976Zm0,8.241H600.2v6.286h-8.976Zm0,8.242H600.2v5.086h-8.976Zm0,7.042H600.2v6.285h-8.976Zm0,8.241H600.2v6.286h-8.976Zm34.8,6.286h-8.976v-6.286h8.976Zm0-8.242h-8.976v-6.285h8.976Zm0-8.241h-8.976V570.1h8.976Zm0-7.042h-8.976v-6.286h8.976Zm0-8.241h-8.976v-6.286h8.976Zm0-8.241h-8.976v-6.286h8.976Zm0-8.242h-8.976v-6.285h8.976Zm0-8.242h-8.976v-6.286h8.976Zm0-8.241h-8.976v-5.607h8.976Zm0-7.564h-8.976v-6.285h8.976Zm0-8.241h-8.976v-6.285h8.976Zm0-8.242h-8.976V496.6h8.976Zm0-8.241h-8.976v-6.285h8.976Zm0-8.241h-8.976v-6.285h8.976Zm0-8.241h-8.976v-5.086h8.976Zm0-7.042h-8.976v-6.285h8.976Zm0-8.241h-8.976v-6.285h8.976Zm0-8.242h-8.976v-6.285h8.976Zm0-8.242h-8.976V440.11h8.976Zm0-8.242h-8.976v-6.285h8.976Zm0-8.241h-8.976v-6h8.976Zm0-7.955h-8.976v-6.286h8.976Zm0-8.241h-8.976v-6.285h8.976Zm0-8.242h-8.976v-6.285h8.976Zm0-8.242h-8.976v-6.285h8.976Zm0-8.241h-8.976v-6.286h8.976Zm0-8.242h-8.976v-5.086h8.976Zm0-7.042h-8.976v-6.286h8.976Zm0-8.242h-8.976v-6.285h8.976Zm0-8.241h-8.976V350.94h8.976Zm0-8.242h-8.976V342.7h8.976Zm0-8.241h-8.976v-6.285h8.976Z" transform="translate(3374.097 3.324)" fill="#e0dcfc"/>
    <rect id="Rectangle_2918" data-name="Rectangle 2918" width="1.254" height="22.319" transform="translate(4049.774 218.339)" fill="#bed2fa"/>
    <rect id="Rectangle_2919" data-name="Rectangle 2919" width="1.254" height="22.319" transform="translate(4119.241 218.339)" fill="#bed2fa"/>
    <rect id="Rectangle_2920" data-name="Rectangle 2920" width="1.254" height="22.319" transform="translate(4058.552 218.339)" fill="#bed2fa"/>
    <rect id="Rectangle_2921" data-name="Rectangle 2921" width="1.254" height="22.319" transform="translate(4125.51 218.339)" fill="#bed2fa"/>
    <path id="Path_44086" data-name="Path 44086" d="M301.275,1005.377a.747.747,0,0,0-.893.56l-6.768,29.56c-1.828.054-3.687,2.034-4.318,4.791l-.645,2.816a3.841,3.841,0,0,0-.088.474l7.516,1.721a1.974,1.974,0,0,0,.146-.461l.645-2.816c.63-2.75-.177-5.335-1.8-6.189l6.769-29.564a.748.748,0,0,0-.56-.893" transform="translate(3572.184 -458.049)" fill="#0b0754"/>
    <path id="Path_44087" data-name="Path 44087" d="M267.3,1117.821s15.611-4.044,20.6-.753-2.539,6.771-2.539,6.771Z" transform="translate(3586.489 -532.338)" fill="#fcd307"/>
    <path id="Path_44088" data-name="Path 44088" d="M548.352,467.3c-2.984,9.134-19.247,24.923-21.5,26.5,0,0-3.784-6.306-3.027-9.838.618-2.883,6.95-13.161,9.117-18.211.114-.262.214-.512.3-.744a4.545,4.545,0,0,0,.419-1.731c-.108-1.1-3.557-3.766-7.565-6.932-5.209-4.117-11.365-9.069-12.363-12.492-1.766-6.054-7.883-30.027-7.883-30.027s15.2,3.287,19.487,7.071,22.7,35.317,23.46,43.389a7.579,7.579,0,0,1-.452,3.017" transform="translate(3425.993 -60.072)" fill="#eece16"/>
    <path id="Path_44089" data-name="Path 44089" d="M585.1,571.789c-2.984,9.134-19.247,24.923-21.5,26.5,0,0-3.784-6.306-3.027-9.838.651-3.032,7.623-14.248,9.42-18.955a23.634,23.634,0,0,1,15.1,2.3" transform="translate(3389.243 -164.564)" fill="#fc9290"/>
    <path id="Path_44090" data-name="Path 44090" d="M466.7,385.3l-.01,1.862s.507,5.822-6.662,6.672-12.568-1.748-12.373-6.241a58.061,58.061,0,0,0,1.37-9.268,20.287,20.287,0,0,0-.255-3.486l13.892-.277,4.092.669Z" transform="translate(3465.152 -33.661)" fill="#fc9290"/>
    <path id="Path_44091" data-name="Path 44091" d="M469.057,375.233,469,385.3a11.747,11.747,0,0,1-5.007,1.1c-6.385,0-10.512-4.681-12.669-8.08a20.256,20.256,0,0,0-.255-3.486l13.892-.278Z" transform="translate(3462.85 -33.661)" fill="#ea8888"/>
    <path id="Path_44092" data-name="Path 44092" d="M435.248,1141a32.659,32.659,0,0,0-2.236-8.376c-1.561-3.123-11.5-1.135-11.5-1.135s-1.987,1.7-2.413,9.653Z" transform="translate(3484.361 -542.491)" fill="#060632"/>
    <path id="Path_44093" data-name="Path 44093" d="M569.076,1127.64c-2.335-1.425-1.006-12.058-1.006-12.058s10.88-8.7,12.376-2.04,10.337,9.656,15.369,10.473c3.474.563,4.549,2.487,4.882,3.625Z" transform="translate(3384.39 -529.143)" fill="#060632"/>
    <path id="Path_44094" data-name="Path 44094" d="M470.159,754.991a50.174,50.174,0,0,1,.8,5.877c1.011,19.729,16.607,64.839,19.4,65.891,4.316,1.629,11.114-1.833,14.67-2.967a3.05,3.05,0,0,0,2.14-3.465c-7.724-35.506-10.562-86.633-11.595-116.9a137.356,137.356,0,0,0-3.139-25.778s-38.038-10.149-38.263,2.689c-.2,11.361,12.6,55.914,15.992,74.655" transform="translate(3460.77 -235.008)" fill="#1c1259"/>
    <path id="Path_44095" data-name="Path 44095" d="M470.159,754.991l25.41-51.566a137.356,137.356,0,0,0-3.139-25.778s-38.038-10.149-38.263,2.689c-.2,11.361,12.6,55.914,15.992,74.655" transform="translate(3460.77 -235.008)" fill="#12084c"/>
    <path id="Path_44096" data-name="Path 44096" d="M441.178,684.3,421.07,830.039s-8.831,2.129-15.7.426c0,0-5.887-77.511-5.4-96.25s-4.225-50.142,1.076-53.605,40.127,3.69,40.127,3.69" transform="translate(3498.214 -238.927)" fill="#1c1259"/>
    <path id="Path_44097" data-name="Path 44097" d="M454.78,505.715a52.936,52.936,0,0,1-25.158,5.822,111.521,111.521,0,0,1-15.133-1.138c-11.937-1.77-17.961-5.1-17.913-6.344.04-1.12.118-4.841.26-6.441,1.9-21.876.916-38.891,3.469-51.673.03-.154.06-.308.093-.459,3.378-16.251,8.673-25.587,11.3-29.416a14.5,14.5,0,0,1,1.594-2.059c0,3.032,6.458,5.651,11.723,5.307,4.435-.29,7.313-3.663,7.313-5.489l0,0c.363,0,20,13.652,20.022,26.339.068,56.855,3.514,65.575,2.424,65.556" transform="translate(3499.515 -60.073)" fill="#eece16"/>
    <path id="Path_44098" data-name="Path 44098" d="M414.516,576.256c-.01.063-.018.126-.028.186-11.937-1.77-17.961-5.1-17.913-6.344.04-1.12.118-4.841.26-6.441,1.9-21.876.916-38.891,3.468-51.673,6.266,8.375,19.147,30.309,14.213,64.272" transform="translate(3499.515 -126.115)" fill="#e2bd03"/>
    <path id="Path_44099" data-name="Path 44099" d="M399.651,582.113l-1.6,5.338-1.594,5.3-69.246-20.829a.826.826,0,0,1-.285-.033.917.917,0,0,1-.267-.131c-.873-.618-1.032-2.881-.361-5.432.035-.141.076-.282.118-.426.81-2.742,2.283-4.77,3.413-4.788a.89.89,0,0,1,.27.035.916.916,0,0,1,.255.124Z" transform="translate(3547.079 -159.166)" fill="#dee9fd"/>
    <path id="Path_44100" data-name="Path 44100" d="M398.047,598.173l-1.594,5.3-69.246-20.829a.821.821,0,0,1-.285-.033.914.914,0,0,1-.267-.131c-.873-.618-1.032-2.881-.361-5.431,2.83,2.124,16.349,11.521,39.424,16.092,23.851,4.725,31.232,5.02,32.33,5.035" transform="translate(3547.079 -169.888)" fill="#eece16"/>
    <path id="Path_44101" data-name="Path 44101" d="M543.072,625.13c-1.158-.342-2.807,1.786-3.683,4.752s-.648,5.649.51,5.991,2.807-1.786,3.683-4.752.648-5.649-.51-5.991" transform="translate(3403.791 -202.213)" fill="#bed2fa"/>
    <path id="Path_44102" data-name="Path 44102" d="M317.162,552.693,309,551.369a.925.925,0,0,0-.27-.088.88.88,0,0,0-.27,0c-1.12.166-2.313,2.369-2.757,5.194-.025.149-.046.292-.063.438a11.291,11.291,0,0,0,.03,3.335,2.822,2.822,0,0,0,1.011,1.983l.028.018a.894.894,0,0,0,.282.1.85.85,0,0,0,.288-.005l71.378,11.582.885-5.459.891-5.5Z" transform="translate(3560.768 -152.546)" fill="#dee9fd"/>
    <path id="Path_44103" data-name="Path 44103" d="M346.83,567.7c-15.267-.981-23.36-9.054-29.668-15.009L309,551.368a.939.939,0,0,0-.27-.088.9.9,0,0,0-.27,0c-1.12.166-2.313,2.369-2.757,5.195-.026.149-.045.292-.063.438a11.279,11.279,0,0,0,.03,3.335,5.3,5.3,0,0,0,1.011,1.983c.01.008.02.012.028.018a.892.892,0,0,0,.282.1.848.848,0,0,0,.288-.005l71.378,11.581.885-5.459c-1.09.129-8.446.8-32.711-.759" transform="translate(3560.768 -152.546)" fill="#eece16"/>
    <path id="Path_44104" data-name="Path 44104" d="M528.253,586.824c-1.193-.188-2.549,2.138-3.029,5.194s.1,5.685,1.29,5.872,2.549-2.138,3.029-5.194-.1-5.685-1.29-5.872" transform="translate(3413.076 -176.459)" fill="#bed2fa"/>
    <path id="Path_44105" data-name="Path 44105" d="M381.487,491.825c-16.556-2.633-27.5-9.571-31.992-12.926-1.534-1.146-2.316-1.874-2.316-1.874-8.483-17.835,6.864-49.106,9.669-54.406,3.027-5.716,21.51-8.229,21.51-8.229a100.621,100.621,0,0,0-4.1,20c-1.153,11.319-13.453,33.382-12.949,35.234.126.467,1.612,1.446,3.779,2.682,6.425,3.657,18.841,9.556,19.6,10.941,1.009,1.849-3.194,8.577-3.194,8.577" transform="translate(3534.449 -60.456)" fill="#fc9290"/>
    <path id="Path_44106" data-name="Path 44106" d="M460.418,619.58s9.25-3.7,11.52-2.186,6.055,3.784,6.055,5.3-4.793,5.55-8.829,6.811-11.94-1.346-11.94-1.346Z" transform="translate(3458.712 -196.788)" fill="#fc9290"/>
    <path id="Path_44107" data-name="Path 44107" d="M374.254,434.393c-1.153,11.319-13.453,33.382-12.949,35.234.126.466,1.612,1.446,3.779,2.682a3.825,3.825,0,0,1-.417.008c-9.677-.426-14.056,4.927-15.173,6.584-1.534-1.146-2.316-1.875-2.316-1.875-8.484-17.835,6.864-49.105,9.669-54.406,3.027-5.716,21.51-8.229,21.51-8.229a100.609,100.609,0,0,0-4.1,20" transform="translate(3534.449 -60.456)" fill="#eece16"/>
    <path id="Path_44108" data-name="Path 44108" d="M463.013,331.18s-17.792,3.594-19.86-7.52-5.757-18.136,5.516-20.9,14.275,1.064,15.867,4.607,3.052,22.593-1.523,23.815" transform="translate(3469.705 15.285)" fill="#fc9290"/>
    <path id="Path_44109" data-name="Path 44109" d="M433.408,317.409s-3.44-7.341-6.308-10.6-1.3-19.559,11.083-19.037S455,297.16,455.134,298.855s-9.91.391-12.648,2.608-.131,5.867-3.26,7.171-5.607,1.3-5.085,4.173a6.291,6.291,0,0,1-.733,4.6" transform="translate(3479.805 24.739)" fill="#060632"/>
    <path id="Path_44110" data-name="Path 44110" d="M432.3,263.345a19.6,19.6,0,0,0-8.189,4.026c-.2.169-.388.343-.572.52l0,0c-7.346,7.005-4.414,18.155-4.414,18.155a29.352,29.352,0,0,0,1.651,3.91c.673,1.093,10.427-.168,10.931-2.27a12.3,12.3,0,0,1,2.438-4.289s10.282-.706,10.974-.757c2.323-.169,8.952-2.475,8.952-2.475-.075-.651-3.806-21.334-21.767-16.824" transform="translate(3484.732 41.597)" fill="#fcd307"/>
    <path id="Path_44111" data-name="Path 44111" d="M470.127,287.538a34.914,34.914,0,0,0-6.8-.764,27.789,27.789,0,0,1-8.7,4.248c-2.719-3.426-10.464-11.682-20.55-14.1l-.088-.022c-.215.27-.335.361-.484.542l0,0a2.08,2.08,0,0,0-.146.194c8.21,1.431,16.014,10.652,18.692,14.1a45.783,45.783,0,0,1-7.94,1.209s17.97.335,26.183-3.989a.768.768,0,0,0-.167-1.427" transform="translate(3474.768 32.044)" fill="#e2bd03"/>
    <path id="Path_44112" data-name="Path 44112" d="M577.619,523.522a5.135,5.135,0,0,1-4.253,4.493c.114-.262.214-.512.3-.744a4.547,4.547,0,0,0,.419-1.731c-.108-1.1-3.557-3.766-7.565-6.932-.33-1.8-1.138-7.126,0-11.357,1.387-5.171,11.478,14.127,11.1,16.271" transform="translate(3385.573 -122.341)" fill="#e2bd03"/>
    <path id="Path_44113" data-name="Path 44113" d="M367.488,587.4s-12.361-1.009-16.4,6.18a2.008,2.008,0,0,0,2.737,1.685s10.456-7.147,15.59-6.591a2.785,2.785,0,0,0-1.93-1.274" transform="translate(3530.116 -176.819)" fill="#e2bd03"/>
    <path id="Path_44114" data-name="Path 44114" d="M588.648,569.275a44.83,44.83,0,0,1,14.485,3.784s1.792-1.76,1.078-2.769-12.08-4.637-15.562-1.015" transform="translate(3370.292 -163.601)" fill="#e2bd03"/>
    <path id="Path_44115" data-name="Path 44115" d="M809.8,329.542c5.557-28.486,10.651-55.755,10.651-55.755s-15.82,2.4-22.63,8.072-7.5,41.818-9.77,52.034a79.84,79.84,0,0,0-1.193,9.19c-1.291,14.694.316,36.7,1.532,42.867-.08.593-.584,3.505-3.265,9.091,0,0-1.388,4.288,7.694,10.721,5.788,4.1,10.946-45.259,16.983-76.221" transform="translate(3238.157 34.14)" fill="#fc9290"/>
    <path id="Path_44116" data-name="Path 44116" d="M824.171,273.787s-2.937,15.716-6.781,35.748c-1.218,6.357-2.53,13.146-3.87,20.007-5.444,10.671-10.116,17.926-11.559,16.561-2.944-2.78-8.113-3.123-11.385-3.02a79.905,79.905,0,0,1,1.193-9.19c.179-.807.348-1.775.512-2.878,1.9-12.856,2.984-43.929,9.258-49.156,6.811-5.676,22.63-8.073,22.63-8.073" transform="translate(3234.437 34.14)" fill="#d2cbff"/>
    <path id="Path_44117" data-name="Path 44117" d="M817.39,346.191c-1.219,6.357-2.53,13.146-3.87,20.007-5.444,10.671-10.116,17.926-11.559,16.561-2.944-2.78-8.113-3.123-11.385-3.02a79.863,79.863,0,0,1,1.193-9.19c.179-.807.348-1.775.512-2.878l16.322-39.4Z" transform="translate(3234.437 -2.515)" fill="#d2cbff"/>
    <path id="Path_44118" data-name="Path 44118" d="M915.679,236.343a120.5,120.5,0,0,0-.714-17.614l-21.952,3.588s0,6.7.1,14.131l-.021,0s-.6,6.9,7.894,7.9,14.925-2.691,14.7-8.013" transform="translate(3165.52 71.182)" fill="#fc9290"/>
    <path id="Path_44119" data-name="Path 44119" d="M892.826,233.83s5.171,10.595,11.1,10.595,11.478-9.964,11.478-9.964Z" transform="translate(3165.646 61.022)" fill="#ea8888"/>
    <path id="Path_44120" data-name="Path 44120" d="M937.54,1137.223s.8-6.223,2.649-9.922,13.622-1.346,13.622-1.346,2.354,2.018,2.859,11.436Z" transform="translate(3135.563 -538.688)" fill="#060632"/>
    <path id="Path_44121" data-name="Path 44121" d="M737.945,1121.194c2.766-1.688,1.192-14.284,1.192-14.284s-12.89-10.312-14.662-2.417-12.245,11.44-18.207,12.407c-4.115.667-5.389,2.946-5.784,4.294Z" transform="translate(3295.049 -522.744)" fill="#060632"/>
    <path id="Path_44122" data-name="Path 44122" d="M906.511,146.375s14.654-23.105-13.485-24.634c0,0-10.554,1.242-12.943-1.147,0,0-8.186,12.442-.541,25.781s26.969,0,26.969,0" transform="translate(3176.778 137.206)" fill="#060632"/>
    <path id="Path_44123" data-name="Path 44123" d="M889.113,179.263c2.133,1.678,8.387,3.345,10.2,3.54,0,0,9.274-2.068,10.96-3.085,2.611-1.583,2.443-4.786,2.576-9.24.161-5.271.692-9.412.1-12.451-.7-3.635-3-5.7-9.458-6.266-11.847-1.028-16.782,1.938-16.988,5.91-.054,1.066-.1,2.083-.138,3.047-.474,12.386.5,16.778,2.749,18.544" transform="translate(3170.071 116.375)" fill="#fc9290"/>
    <path id="Path_44124" data-name="Path 44124" d="M806.27,677.943a59.467,59.467,0,0,0-.946,6.962c-1.2,23.372-19.674,76.812-22.978,78.058-5.114,1.93-13.166-2.172-17.379-3.514a3.614,3.614,0,0,1-2.535-4.1c9.15-42.063,12.513-102.631,13.736-138.49a162.735,162.735,0,0,1,3.718-30.539s45.062-12.023,45.329,3.186c.238,13.458-14.926,66.239-18.945,88.441" transform="translate(3253.423 -173.089)" fill="#1c1259"/>
    <path id="Path_44125" data-name="Path 44125" d="M834.665,677.943l-30.1-61.088a162.735,162.735,0,0,1,3.718-30.539s45.062-12.023,45.329,3.186c.238,13.458-14.926,66.239-18.945,88.441" transform="translate(3225.028 -173.089)" fill="#12084c"/>
    <path id="Path_44126" data-name="Path 44126" d="M865.917,594.2l23.822,172.651s10.461,2.523,18.6.5c0,0,6.974-91.823,6.393-114.023s5.005-59.4-1.275-63.5-47.537,4.371-47.537,4.371" transform="translate(3183.75 -177.732)" fill="#1c1259"/>
    <path id="Path_44127" data-name="Path 44127" d="M880.059,377.944a3.56,3.56,0,0,1-3.5,3.7l-37.54.573-27.572.421c-1.292.023,2.79-10.307,2.873-77.662.02-15.03,23.289-31.2,23.718-31.2l.005,0c0,2.165,3.41,6.16,8.665,6.5,6.236.409,13.887-2.694,13.887-6.286a16.711,16.711,0,0,1,1.89,2.439c3.113,4.536,9.384,15.6,13.387,34.848,3.161,15.2,1.945,35.531,4.22,61.759.167,1.895-.078,3.577-.03,4.9" transform="translate(3220.568 34.15)" fill="#fff"/>
    <path id="Path_44128" data-name="Path 44128" d="M878.675,381.852a76.41,76.41,0,0,1-14.323,4.17A141.143,141.143,0,0,1,836.6,388.81c-18.247.116-25.156-6.173-25.156-6.173-1.292.023,2.79-10.307,2.873-77.662.021-15.03,23.289-31.2,23.718-31.2l0,0s-.6,20.014,5.457,25.9c0,0,8.491-6.559,19.507-25.226,3.113,4.536,8.862,17.578,12.865,36.831a104.242,104.242,0,0,1,1.706,12.782c1.062,13.284.825,29.5,2.515,48.977.167,1.895-.078,3.577-.03,4.9.078,2,.615,3.877-1.385,3.907" transform="translate(3220.568 34.149)" fill="#d2cbff"/>
    <path id="Path_44129" data-name="Path 44129" d="M973.22,459.319a76.417,76.417,0,0,1-14.323,4.17c-2.937-4.477-6.638-12.56-7.149-25.3-.867-21.538,19.592-49.276,19.592-49.276l.78,12.614c1.062,13.284.825,29.5,2.515,48.976.167,1.895-.078,3.577-.03,4.9.078,2,.616,3.877-1.385,3.907" transform="translate(3126.022 -43.318)" fill="#d2cbff"/>
    <rect id="Rectangle_2922" data-name="Rectangle 2922" width="40.27" height="55.24" transform="translate(4046.646 363.206) rotate(-30)" fill="#0b0754"/>
    <path id="Path_44130" data-name="Path 44130" d="M918.325,281.466c-4.271-3.229-14.3-5.52-19.24-6.493-1.74-.343-2.848-.522-2.848-.522.515,2.374,1.673,6.1,3.186,10.567,6.342,18.735,18.912,50.594,16.379,51.273a69.622,69.622,0,0,1-7.6,1.463c-11.026,1.615-25.862,2.329-27.414,2.4-.122-.114-5.406-5.04-7.464-5.04-2.082,0-8.082,2.186-8.694,3.868s-.857,4.709.857,5.382a77.1,77.1,0,0,0,10.654,2.523,4.935,4.935,0,0,0,.883-.008,186.069,186.069,0,0,0,33.3,6.682,107.667,107.667,0,0,0,19.351.557c8.845-19.035-5.575-68.285-11.352-72.652" transform="translate(3184.923 33.694)" fill="#fc9290"/>
    <path id="Path_44131" data-name="Path 44131" d="M1000.562,355.056a107.665,107.665,0,0,1-19.351-.557c.674-3.317,1.3-9.8-2.121-15.807a69.626,69.626,0,0,0,7.6-1.463c2.533-.679-10.038-32.537-16.379-51.272-.507-6.057-.775-10.111-.775-10.111l.436.065c4.937.974,14.969,3.264,19.24,6.493,5.777,4.367,20.2,53.616,11.352,72.652" transform="translate(3114.038 32.755)" fill="#d2cbff"/>
    <path id="Path_44132" data-name="Path 44132" d="M909.915,295.449s16.986-7.484,17.238-8.072-.841-5.129-2.018-6.475c0,0,8.156.757,8.661-.252s.883-9.311.883-9.311-3.4-3.515-7.6-3.851c0,0-3.691,9.173-5.055,11.9-3.616,7.231-12.109,16.061-12.109,16.061" transform="translate(3154.148 38.378)" fill="#d2cbff"/>
    <path id="Path_44133" data-name="Path 44133" d="M879.327,280.722s1.093,8.745,4.036,14.8c0,0-8.871-6.181-9.628-8.2s2.144-5.928,2.144-5.928-5.3-.126-5.424-1.892,1.639-8.7,1.639-8.7,4.557-3.327,5.818-3.2Z" transform="translate(3180.7 38.306)" fill="#d2cbff"/>
    <path id="Path_44134" data-name="Path 44134" d="M907.875,110.889l-37.721.4s-.554-11.374,5.984-18.627q.448-.5.949-.976a16.823,16.823,0,0,1,5.152-3.349c7.54-3.145,13.794-.242,17.7,2.731.385.291.747.584,1.084.874a22.728,22.728,0,0,1,3.311,3.416s3.663,5,3.54,15.527" transform="translate(3180.907 159.82)" fill="#fcd307"/>
    <path id="Path_44135" data-name="Path 44135" d="M897.3,120.257c-.1-1.532-.769-14.576,3.812-19a7.053,7.053,0,0,0-.625-.522c-4.886,5.085-5.274,17.923-5.254,19.542l-12.059.129c-.357-9.239-5.456-18.438-6.068-19.464a8.418,8.418,0,0,0-.7.714,55.041,55.041,0,0,1,4.532,18.774l-10.769.115s10.047,2.6,17.614,2.5,20.107-2.907,20.107-2.907Z" transform="translate(3180.883 150.565)" fill="#e2bd03"/>
    <rect id="Rectangle_2923" data-name="Rectangle 2923" width="593.676" height="381.322" transform="translate(3766.324 218.339)" fill="none"/>
  </g>
</svg>
